<?xml version="1.0" encoding="UTF-8"?>
<svg xmlns="http://www.w3.org/2000/svg" width="302" height="258" viewBox="0 0 302 258" fill="none">
  <path d="M41.2 0.145957C89.04 -0.147376 136.88 0.105962 184.72 0.0259622C197.8 0.785962 210.893 -0.400711 223.987 0.185956C236.693 0.532622 249.413 0.119296 262.12 0.359296C266.48 0.265962 269.573 3.79929 271.893 7.03929C277.52 15.426 281.693 24.666 286.667 33.426C291.093 40.2126 295.573 46.9993 299.453 54.1193C302.267 58.9993 300.987 64.8526 301.213 70.2126C301.107 124.426 301.187 178.639 301.2 232.853C301 239.386 302.613 247.199 297.32 252.226C294.027 256.426 288.52 257.293 283.52 257.213C194.547 257.173 105.587 257.213 16.6267 257.186C8.25334 257.986 0.0266667 250.706 0 242.306C0.08 182.226 0.0666695 122.159 0.0133362 62.0793C-0.226664 55.8126 3.90667 50.6393 6.97333 45.546C14.2 33.6393 21.1333 21.5593 28.1867 9.55929C30.76 4.58595 35.0667 -0.280709 41.2 0.145957ZM38.8 5.70596C34.0933 9.09262 31.9467 14.7326 28.9867 19.506C24.0533 27.6926 19.56 36.1326 14.4133 44.186C26.84 44.4526 39.2667 44.3593 51.6933 44.266C56.6133 31.0926 62.1733 18.146 67.9333 5.30596C58.2267 5.49263 48.44 4.51929 38.8 5.70596ZM74.0667 5.78596C67.9333 18.2793 63 31.3726 57.68 44.2526C71.0933 44.4526 84.4933 44.2126 97.9067 44.3726C100.76 31.386 103.627 18.3993 105.907 5.30596C95.3067 5.51929 84.5733 4.45263 74.0667 5.78596ZM111.027 5.42596C110.28 18.6393 104.92 31.066 104.813 44.346C119.227 44.2926 133.653 44.3726 148.08 44.2926C148.2 31.306 148.027 18.306 148.12 5.31929C135.747 5.19929 123.387 4.98596 111.027 5.42596ZM153.427 5.25263C153.493 18.2793 153.387 31.306 153.453 44.3326C169.227 44.306 185 44.3326 200.773 44.4393C196.747 31.4926 194.187 18.146 190.333 5.17263C178.027 5.33263 165.733 5.06596 153.427 5.25263ZM195.6 4.22595C197.653 17.8926 201.76 31.1593 205.24 44.5193C217.893 44.186 230.547 44.4126 243.2 44.226C242.4 36.3993 237.693 29.9193 234.867 22.786C232.08 16.7726 230.467 10.266 227.507 4.34596C223.453 4.11929 219.44 4.71929 215.413 5.05262C208.787 5.61262 202.213 4.33262 195.6 4.22595ZM233.56 4.42596C239.147 17.586 243.707 31.1326 249.853 44.0393C262.12 45.9726 274.427 43.666 286.76 44.4393C284.453 36.7726 278.893 30.8393 275.053 23.9593C271.92 18.586 269.507 12.7593 265.733 7.78596C263.813 4.8793 260.04 4.46596 256.867 4.37262C249.093 4.29262 241.333 4.35929 233.56 4.42596ZM10.88 49.466C9.26667 53.1193 7.50667 56.706 5.85334 60.346C10.24 61.586 14.7067 62.8126 19.32 62.7726C81.5733 62.746 143.827 62.7993 206.08 62.746C231 63.5326 255.907 62.4526 280.827 62.8126C285.88 63.066 290.853 61.9193 295.573 60.186C293.867 56.546 292.72 52.2926 289.44 49.6926C281.24 48.4926 272.933 49.9326 264.72 48.946C257.173 47.866 249.64 49.7326 242.08 49.3993C232.293 49.1593 222.493 49.8126 212.733 48.9193C205.64 47.8526 198.547 48.986 191.453 49.346C131.267 49.426 71.08 49.186 10.88 49.466ZM284.8 68.4126C195.427 68.2793 106.053 68.4393 16.6667 68.3593C13.0533 68.306 9.42667 68.066 5.81334 67.8793C5.65334 82.4526 5.80001 97.026 5.66667 111.599C5.80001 115.093 5.44 119.053 7.68 121.999C10.1467 125.546 14.9467 125.533 18.6933 126.733C18.9733 116.999 18.68 107.266 18.88 97.5326C23.4533 96.7593 28.0933 96.466 32.7333 96.3726C33.1333 94.0926 33.52 91.7993 33.92 89.506C40.4133 89.186 46.9333 89.0393 53.4267 89.3993C53.9333 96.4526 53.9733 103.546 53.24 110.586C47.0933 110.613 40.9333 110.639 34.7867 110.613C33.8533 107.879 32.9467 105.146 32.0133 102.426C29.6667 102.559 27.3333 102.693 24.9867 102.826C25.0533 110.746 24.96 118.679 25.08 126.613C107.187 126.719 189.293 126.599 271.4 126.666C277.667 126.599 284.2 127.279 290.16 124.866C294.387 123.453 295.973 118.413 296 114.346C296.027 98.5726 295.947 82.7993 295.987 67.0126C292.307 67.866 288.573 68.426 284.8 68.4126ZM38.4533 94.8526C38.4533 98.026 38.4667 101.199 38.4667 104.386C41.7467 104.413 45.0267 104.426 48.32 104.453C48.32 101.266 48.3067 98.0793 48.2933 94.8926C45.0133 94.8926 41.7333 94.8793 38.4533 94.8526ZM6.41334 130.239C6.13334 144.906 6.41334 159.573 6.24001 174.239C6.28001 177.306 6.10667 180.426 6.85334 183.439C9.41334 187.533 14.1733 188.826 18.64 189.546C19.0133 170.559 18.7867 151.559 18.7467 132.559C14.6267 131.853 10.5333 130.986 6.41334 130.239ZM283.387 132.133C197.28 132.266 111.173 131.919 25.0667 132.293C24.9467 141.079 25.0267 149.866 25.0133 158.653C27.28 158.706 29.56 158.773 31.8267 158.853C32.9067 156.253 33.9733 153.639 35.08 151.053C41.24 150.933 47.4133 150.933 53.48 152.133C53.8533 158.839 53.8667 165.573 53.4667 172.279C46.9733 172.559 40.48 172.586 33.9867 172.306C33.3467 169.573 32.6667 166.839 31.9733 164.119C29.6533 164.266 27.32 164.413 25 164.559C25 172.759 24.96 180.959 25.0533 189.159C111.213 189.119 197.373 189.093 283.533 189.186C288.987 189.493 295.387 185.759 294.88 179.639C295 163.239 294.867 146.826 294.853 130.413C291.04 131.026 287.267 131.959 283.387 132.133ZM38.4533 157.373C38.4933 160.506 38.5333 163.626 38.5733 166.759C41.8 166.746 45.04 166.746 48.28 166.773C48.2933 163.586 48.3067 160.399 48.3067 157.226C45.0267 157.266 41.7333 157.319 38.4533 157.373ZM280.813 194.826C195.533 194.853 110.253 194.813 24.96 194.853C24.9733 203.479 25.04 212.106 25.04 220.733C27.56 220.679 30.08 220.639 32.6133 220.626C33.12 218.333 33.6133 216.039 34.1333 213.746C40.52 213.679 46.8933 213.666 53.28 213.746C53.96 220.773 54 227.853 53.1333 234.866C46.8933 234.933 40.6533 234.986 34.4133 234.773C33.6133 232.106 32.8267 229.453 32 226.799C28.08 226.373 22.7733 228.279 20.1867 224.306C18.6267 222.693 18.8133 220.346 18.7333 218.306C18.76 210.599 18.9067 202.906 18.7733 195.213C14.4267 194.426 10.1067 193.466 5.73333 192.786C5.68 206.546 5.74667 220.319 5.70667 234.079C5.72 238.013 5.76 242.026 6.98667 245.799C8.89334 250.586 14.5867 252.239 19.3067 252.159C104.227 252.093 189.147 252.119 274.067 252.173C279.52 251.986 285.44 253.079 290.44 250.293C294.493 248.519 295.92 243.759 295.973 239.693C296.08 223.839 295.893 207.986 296 192.133C291.053 193.546 286.027 194.999 280.813 194.826ZM38.36 220.106C38.4133 223.186 38.4267 226.266 38.48 229.346C41.8 229.306 45.1333 229.306 48.4667 229.306C48.36 226.266 48.3733 223.199 47.8933 220.186C44.72 219.893 41.5333 220.013 38.36 220.106Z" fill="#4D94D9"></path>
  <path d="M269.92 80.0791C273.267 80.3191 276.853 79.9591 279.933 81.6124C283.72 85.9458 281.973 94.8658 275.36 94.9591C271.147 95.9191 267.533 92.4924 266.507 88.6658C266.267 85.4524 268.68 82.8658 269.92 80.0791ZM273.16 85.4258C273.2 86.7458 273.253 88.0524 273.307 89.3724C274.027 89.3858 275.48 89.3991 276.2 89.3991C276.24 88.0791 276.267 86.7591 276.32 85.4391C275.52 85.4391 273.947 85.4391 273.16 85.4258Z" fill="#4D94D9"></path>
  <path d="M74.7067 88.5191C76.6001 88.4258 78.4934 88.3324 80.3867 88.2524C80.4934 95.3058 80.5067 102.372 80.2801 109.439C78.4134 109.119 76.5601 108.786 74.6934 108.466C74.6134 101.812 74.6267 95.1591 74.7067 88.5191Z" fill="#4D94D9"></path>
  <path d="M100.253 88.2391C105.293 87.9324 110.347 87.8657 115.413 87.9191C162.76 88.1191 210.12 87.5191 257.467 88.2258C257.707 94.7191 258.067 101.252 257.4 107.732C256.04 109.692 253.6 109.559 251.493 109.612C202.56 109.439 153.627 109.639 104.693 109.492C102.853 109.652 101.427 108.986 100.4 107.479C99.5999 101.092 100.093 94.6391 100.253 88.2391ZM105.427 93.3058C105.44 96.9591 105.453 100.612 105.48 104.279C110.76 104.359 116.04 104.372 121.32 104.292C121.36 100.599 121.4 96.8924 121.453 93.1991C116.107 93.1324 110.773 93.1858 105.427 93.3058ZM127.787 93.0524C127.4 96.6257 125.027 101.479 128.6 104.066C133.32 104.652 138.093 104.319 142.853 104.346C142.88 100.626 142.893 96.9057 142.88 93.1724C137.84 93.1857 132.813 93.1591 127.787 93.0524ZM149.16 93.1724C149.173 96.9191 149.187 100.666 149.147 104.412C154.587 104.319 160.013 104.332 165.453 104.292C165.453 100.612 165.453 96.9191 165.467 93.2391C160.027 93.1591 154.587 93.1457 149.16 93.1724ZM170.693 93.2524C170.733 96.9324 170.733 100.612 170.707 104.292C176.507 104.332 182.32 104.346 188.12 104.266C188.067 100.626 188.053 96.9858 188.067 93.3324C182.28 93.0924 176.48 93.0657 170.693 93.2524ZM193.173 93.2258C193.187 96.9324 193.2 100.639 193.213 104.346C198.613 104.346 204.013 104.332 209.413 104.306C209.4 100.599 209.413 96.8924 209.467 93.1858C204.04 93.1591 198.6 93.1858 193.173 93.2258ZM214.8 93.2924C214.827 96.9591 214.827 100.626 214.8 104.292C220.533 104.372 226.253 104.372 231.973 104.212C231.947 100.572 231.947 96.9458 231.987 93.3058C226.253 93.1058 220.52 93.1324 214.8 93.2924ZM237.147 93.1591C237.187 96.8924 237.213 100.612 237.24 104.332C242.253 104.346 247.267 104.319 252.28 104.266C252.333 100.586 252.373 96.8924 252.413 93.2124C247.333 93.1457 242.24 93.1324 237.147 93.1591Z" fill="#4D94D9"></path>
  <path d="M61.28 95.8794C62.1467 95.1594 63.88 93.7327 64.7467 93.0127C65.76 93.6527 67.76 94.9327 68.76 95.5594C68.0667 98.7727 67.1734 101.933 66.1467 105.066C63.0667 102.879 61.6934 99.5194 61.28 95.8794Z" fill="#4D94D9"></path>
  <path d="M272.973 141.706C276.267 141.653 279.2 143.839 281.027 146.439C281.453 149.693 280.667 152.933 280.173 156.146C276.427 156.706 271.72 158.933 268.547 155.826C263.613 151.719 266.547 142.399 272.973 141.706ZM273.453 147.866C272.493 148.693 271.533 149.506 270.56 150.333C272.32 150.813 274.053 151.399 275.76 152.066C275.827 150.853 275.893 149.653 275.973 148.453C275.133 148.253 274.293 148.066 273.453 147.866Z" fill="#4D94D9"></path>
  <path d="M100.427 153.306C101.227 149.706 105.707 149.933 108.613 149.719C154.907 149.799 201.213 149.733 247.52 149.733C250.84 149.746 254.12 150.333 257.387 150.893C257.587 157.466 258.28 164.133 257.267 170.666C256.227 172.946 253.453 172.279 251.453 172.533C206.56 172.493 161.653 172.519 116.76 172.533C111.68 172.439 106.547 172.919 101.52 172.079C98.1468 166.453 98.2001 159.333 100.427 153.306ZM105.507 156.106C105.493 159.653 105.507 163.199 105.547 166.746C110.813 166.813 116.08 166.853 121.347 166.813C121.373 163.239 121.387 159.679 121.387 156.119C116.093 155.999 110.8 156.013 105.507 156.106ZM127.827 155.999C127.787 159.599 127.8 163.213 127.84 166.826C132.84 166.866 137.84 166.839 142.84 166.839C142.893 163.226 142.907 159.626 142.92 156.026C137.893 156.013 132.853 156.013 127.827 155.999ZM149.2 156.053C149.2 159.653 149.213 163.239 149.227 166.853C154.6 166.839 159.96 166.853 165.32 166.813C165.427 163.226 165.52 159.639 165.587 156.053C160.133 155.999 154.667 156.039 149.2 156.053ZM170.573 156.119C170.6 159.119 170.52 162.133 170.8 165.133C175.133 168.733 181.627 166.119 186.853 166.826C186.92 163.213 186.973 159.613 187.013 155.999C181.533 155.986 176.053 156.013 170.573 156.119ZM193.107 156.053C193.147 159.639 193.213 163.226 193.32 166.813C198.667 166.826 204.013 166.853 209.36 166.839C209.387 163.253 209.387 159.653 209.4 156.066C203.973 156.026 198.533 156.013 193.107 156.053ZM215.8 155.999C215.827 159.613 215.867 163.226 215.933 166.853C220.893 166.839 225.84 166.853 230.8 166.853C230.827 163.253 230.84 159.639 230.867 156.039C225.84 155.999 220.827 155.999 215.8 155.999ZM237.187 156.053C237.187 159.666 237.213 163.293 237.253 166.919C242.293 166.893 247.36 166.853 252.387 166.239C252.347 162.853 252.333 159.466 252.293 156.079C247.253 156.013 242.213 155.999 237.187 156.053Z" fill="#4D94D9"></path>
  <path d="M74.76 150.986C76.6 150.866 78.44 150.759 80.2933 150.653C80.5333 157.813 80.5066 164.986 80.2933 172.146C78.5466 172.133 76.8 172.133 75.0533 172.146C74.4266 165.106 74.6 158.026 74.76 150.986Z" fill="#4D94D9"></path>
  <path d="M62.4267 156.359C64.3067 156.466 66.2001 156.586 68.0801 156.706C68.1334 159.546 68.2267 162.386 68.3334 165.226C66.3467 165.453 64.3601 165.666 62.3734 165.866C62.3334 162.693 62.3467 159.519 62.4267 156.359Z" fill="#4D94D9"></path>
  <path d="M269.613 205.706C274.693 202.386 282.013 206.812 281.267 212.839C281.92 219.332 273 222.906 268.587 218.572C264.187 215.466 265.12 208.252 269.613 205.706Z" fill="#4D94D9"></path>
  <path d="M74.84 213.706C76.64 213.559 78.44 213.426 80.2267 213.292C80.4933 220.879 80.7867 228.506 79.7733 236.066C78.0933 234.506 74.84 233.852 74.76 231.159C74.3067 225.346 74.68 219.519 74.84 213.706Z" fill="#4D94D9"></path>
  <path d="M101.413 213.466C105.107 212.519 108.947 212.639 112.72 212.626C150.053 212.786 187.4 212.359 224.733 212.866C235.533 212.586 246.4 212.199 257.173 213.373C257.8 220.546 258.16 227.826 256.933 234.973C206.173 235.133 155.4 235.106 104.64 235.039C101.027 235.693 99.8001 231.666 100.013 228.826C100.187 223.733 99.0267 218.173 101.413 213.466ZM193.16 218.799C193.173 222.359 193.2 225.933 193.213 229.506C198.613 229.533 204 229.559 209.4 229.493C209.4 225.919 209.413 222.359 209.44 218.799C204.013 218.599 198.587 218.613 193.16 218.799ZM105.533 218.839C105.493 222.373 105.48 225.906 105.493 229.439C110.787 229.506 116.093 229.506 121.387 229.439C121.413 225.893 121.413 222.346 121.427 218.799C116.12 218.719 110.827 218.746 105.533 218.839ZM127.96 218.746C127.293 222.013 126.787 225.306 126.347 228.626C131.8 229.719 137.373 229.546 142.893 229.559C142.88 225.959 142.867 222.373 142.853 218.786C137.88 218.733 132.92 218.733 127.96 218.746ZM149.133 218.773C149.12 222.346 149.12 225.933 149.147 229.506C154.56 229.559 159.987 229.546 165.4 229.506C165.453 225.933 165.52 222.373 165.56 218.799C160.08 218.733 154.613 218.733 149.133 218.773ZM170.72 218.813C170.707 222.359 170.707 225.906 170.733 229.466C176.147 229.546 181.56 229.559 186.973 229.533C187 225.933 187 222.346 186.973 218.746C181.56 218.799 176.133 218.773 170.72 218.813ZM215.88 218.773C215.88 222.346 215.88 225.919 215.88 229.506C220.88 229.519 225.88 229.533 230.867 229.506C230.88 225.919 230.88 222.333 230.84 218.746C225.853 218.706 220.867 218.759 215.88 218.773ZM237.2 218.746C237.173 222.346 237.16 225.959 237.187 229.559C242.213 229.626 247.24 229.559 252.267 229.413C252.333 225.906 252.387 222.386 252.453 218.879C247.373 218.719 242.28 218.706 237.2 218.746Z" fill="#4D94D9"></path>
  <path d="M61.8 228.533C61.3066 224.133 62.1333 219.759 66.1333 217.266C67.4133 220.839 68.24 224.559 68.6266 228.346C66.3466 228.426 64.08 228.479 61.8 228.533Z" fill="#4D94D9"></path>
</svg>
