<?xml version="1.0" encoding="UTF-8"?>
<svg xmlns="http://www.w3.org/2000/svg" viewBox="0 0 40 40">
  <path fill="#b6dcfe" d="M7,37.5c-0.827,0-1.5-0.673-1.5-1.5v-9c0-0.426,0.189-0.836,0.519-1.124L6.449,25.5l-0.431-0.376 C5.689,24.836,5.5,24.426,5.5,24v-8c0-0.426,0.189-0.836,0.519-1.124L6.449,14.5l-0.431-0.376C5.689,13.836,5.5,13.426,5.5,13V4 c0-0.827,0.673-1.5,1.5-1.5h26c0.827,0,1.5,0.673,1.5,1.5v9c0,0.426-0.189,0.836-0.519,1.124L33.551,14.5l0.431,0.376 C34.311,15.164,34.5,15.574,34.5,16v8c0,0.426-0.189,0.836-0.519,1.124L33.551,25.5l0.431,0.376 C34.311,26.164,34.5,26.574,34.5,27v9c0,0.827-0.673,1.5-1.5,1.5H7z"></path>
  <path fill="#4788c7" d="M33,3c0.551,0,1,0.449,1,1v9c0,0.385-0.218,0.634-0.348,0.747L32.791,14.5l0.861,0.753 C33.782,15.366,34,15.615,34,16v8c0,0.385-0.218,0.634-0.348,0.747L32.791,25.5l0.861,0.753C33.782,26.366,34,26.615,34,27v9 c0,0.551-0.449,1-1,1H7c-0.551,0-1-0.449-1-1v-9c0-0.385,0.218-0.634,0.348-0.747L7.209,25.5l-0.861-0.753 C6.218,24.634,6,24.385,6,24v-8c0-0.385,0.218-0.634,0.348-0.747L7.209,14.5l-0.861-0.753C6.218,13.634,6,13.385,6,13V4 c0-0.551,0.449-1,1-1H33 M33,2H7C5.895,2,5,2.895,5,4v9c0,0.601,0.27,1.133,0.69,1.5C5.27,14.867,5,15.399,5,16v8 c0,0.601,0.27,1.133,0.69,1.5C5.27,25.867,5,26.399,5,27v9c0,1.105,0.895,2,2,2h26c1.105,0,2-0.895,2-2v-9 c0-0.601-0.27-1.133-0.69-1.5C34.73,25.133,35,24.601,35,24v-8c0-0.601-0.27-1.133-0.69-1.5C34.73,14.133,35,13.601,35,13V4 C35,2.895,34.105,2,33,2L33,2z"></path>
  <path fill="#4788c7" d="M12.815 22.51c.324.181.888.313 1.332.313.731 0 1.103-.384 1.103-.912 0-.588-.359-.875-1.043-1.319-1.104-.671-1.523-1.522-1.523-2.255 0-1.295.863-2.374 2.543-2.374.54 0 1.043.144 1.271.288l-.252 1.354c-.229-.144-.576-.275-1.02-.275-.672 0-.995.407-.995.839 0 .48.239.732 1.103 1.26 1.08.647 1.464 1.463 1.464 2.314 0 1.476-1.092 2.447-2.663 2.447-.647 0-1.271-.168-1.547-.324L12.815 22.51zM22.437 25.437c-.684-.288-1.464-.695-2.075-1.056-.18-.096-.312-.168-.372-.168-1.583 0-2.542-1.522-2.542-4.161 0-2.171.875-4.114 2.687-4.114 1.955 0 2.482 2.147 2.482 3.994 0 2.003-.443 3.238-1.211 3.658v.06c.516.228 1.079.408 1.583.6L22.437 25.437zM20.986 20.004c0-1.512-.229-2.699-.924-2.699-.659 0-.995 1.212-.983 2.734-.024 1.644.275 2.807.995 2.807C20.71 22.846 20.986 21.683 20.986 20.004zM23.735 16.033h1.571v6.753h2.063v1.331h-3.634V16.033z"></path>
</svg>
