<svg xmlns="http://www.w3.org/2000/svg" viewBox="0 0 40 40"><path fill="#dff0fe" d="M4,37.5c-1.379,0-2.5-1.122-2.5-2.5V4c0-1.378,1.121-2.5,2.5-2.5h31c1.379,0,2.5,1.122,2.5,2.5v31 c0,1.378-1.121,2.5-2.5,2.5H4z"/><path fill="#4788c7" d="M35,2c1.103,0,2,0.897,2,2v31c0,1.103-0.897,2-2,2H4c-1.103,0-2-0.897-2-2V4c0-1.103,0.897-2,2-2H35 M35,1H4C2.343,1,1,2.343,1,4v31c0,1.657,1.343,3,3,3h31c1.657,0,3-1.343,3-3V4C38,2.343,36.657,1,35,1L35,1z"/><path fill="#b6dcfe" d="M5 2H6V37H5zM12 2H13V37H12zM19 2H20V37H19zM26 2H27V37H26zM33 2H34V37H33z"/><path fill="#b6dcfe" d="M2 5H37V6H2zM2 12H37V13H2zM2 19H37V20H2zM2 26H37V27H2zM2 33H37V34H2z"/><path fill="none" stroke="#4788c7" stroke-miterlimit="10" d="M2,33.5h3l2.5-15.503L10,33.5h3L15.5,11L18,33.5h3L23.5,16L26,33.5 h3l2.5-11l2.5,11h3"/></svg>