<?xml version="1.0" encoding="UTF-8"?>
<svg xmlns="http://www.w3.org/2000/svg" viewBox="0 0 40 40">
  <path fill="#dff0fe" d="M6.5 37.5L6.5 2.5 24.793 2.5 33.5 11.207 33.5 37.5z"></path>
  <path fill="#4788c7" d="M24.586,3L33,11.414V37H7V3H24.586 M25,2H6v36h28V11L25,2L25,2z"></path>
  <path fill="#fff" d="M24.5 11.5L24.5 2.5 24.793 2.5 33.5 11.207 33.5 11.5z"></path>
  <path fill="#4788c7" d="M25 3.414L32.586 11H25V3.414M25 2h-1v10h10v-1L25 2 25 2zM10.401 18.242v3.238h1.643v-3.238h1.571v8.084h-1.571v-3.382h-1.643v3.382H8.831v-8.084H10.401zM16.186 19.693h-1.427v-1.451h4.438v1.451h-1.439v6.633h-1.571V19.693zM25.268 23.496c-.048-.768-.096-1.812-.084-2.675H25.16c-.144.863-.36 1.858-.516 2.482l-.708 2.891h-1.104l-.671-2.843c-.156-.647-.372-1.655-.504-2.53h-.024c-.024.875-.084 1.895-.12 2.698l-.144 2.807h-1.343l.576-8.084h1.667l.647 2.927c.216 1.02.42 1.919.564 2.83h.036c.12-.899.3-1.811.504-2.83l.647-2.927h1.655l.492 8.084h-1.403L25.268 23.496zM28.271 18.242h1.571v6.753h2.063v1.331h-3.634V18.242z"></path>
</svg>
