<?xml version="1.0" encoding="UTF-8"?>
<svg xmlns="http://www.w3.org/2000/svg" width="225" height="223" viewBox="0 0 225 223" fill="none">
  <path d="M94.8135 4.94607L94.8108 4.94644C79.937 6.99682 65.2674 11.98 52.5901 20.3935C44.396 25.7798 37.134 32.4841 30.9494 40.0091L30.9465 40.0126C25.1211 47.1205 20.3255 55.1289 17.0019 63.7644C11.4253 78.0881 10.1737 93.7287 11.9369 108.714L11.9375 108.718C13.2036 119.346 16.3359 129.868 21.6437 139.317C25.4242 146.136 30.32 152.213 35.763 157.594C39.9638 161.826 44.5426 165.734 49.5005 169.138C57.1055 174.411 65.6681 178.368 74.7118 180.564C74.7199 180.833 74.728 181.101 74.736 181.369C74.7687 182.457 74.8014 183.544 74.8338 184.632C68.7969 184.633 62.7608 184.632 56.724 184.632C53.1404 184.631 49.5566 184.631 45.9722 184.631C44.2928 184.607 42.6715 184.618 41.0926 184.628C36.4575 184.658 32.1891 184.685 27.8959 183.835C24.215 183.086 21.1004 181.786 19.2481 179.495L19.2472 179.494C17.0265 176.75 16.1758 172.914 15.905 168.63L15.7081 165.517L12.5882 165.504C11.4216 165.499 10.2463 165.499 9.08059 165.499C8.38534 165.499 7.69348 165.499 7.00889 165.498L3.66805 165.494L3.66695 168.835C3.66181 184.558 3.66181 200.279 3.66438 215.999L3.66493 219.336H7.00169C16.3766 219.336 25.7519 219.336 35.1273 219.337C53.8786 219.337 72.6306 219.338 91.3812 219.336L94.9347 219.336L94.7116 215.789C94.4726 211.989 94.2337 208.188 93.9948 204.387C93.2803 193.018 92.5657 181.648 91.8468 170.279L91.711 168.131L89.6985 167.368C86.639 166.209 83.7014 164.913 80.9553 163.351L80.9404 163.342L80.9254 163.334C73.8095 159.381 67.7462 153.557 63.8357 146.512L63.8265 146.496L63.8171 146.479C61.6156 142.617 60.092 138.335 58.6459 133.796C56.5862 127.214 55.1662 120.422 54.3094 113.544C52.8691 101.432 52.8319 89.164 54.8944 77.2574L54.8947 77.2554C57.1298 64.3056 62.3626 51.8402 70.684 41.811L70.6896 41.8042L70.6951 41.7975C75.3591 36.1162 80.9001 31.1982 87.2204 27.7096L87.2271 27.7059L87.2339 27.7021C98.3524 21.498 111.883 19.9379 124.462 22.5342C133.117 24.3417 141.24 28.566 148.083 34.3299C153.91 39.2782 159.018 44.997 162.725 51.5072L162.73 51.5159L162.735 51.5246C167.296 59.422 170.104 68.3202 171.66 77.4695C173.393 87.6872 173.624 98.1662 173.02 108.648C172.382 118.585 170.796 128.395 167.34 137.508C164.595 144.744 160.563 151.449 155.099 156.668L155.091 156.676L155.082 156.685C150.011 161.596 143.641 165.163 136.799 167.298L134.661 167.965L134.468 170.197C133.157 185.368 131.853 200.541 130.549 215.713L130.238 219.336L133.874 219.336C152.624 219.338 171.375 219.337 190.125 219.337C199.501 219.336 208.876 219.336 218.251 219.336H221.587L221.588 216C221.593 200.279 221.593 184.558 221.588 168.837L221.587 165.506L218.255 165.501C216.395 165.498 214.533 165.498 212.673 165.501L209.456 165.506L209.343 168.721C209.192 173.017 207.918 177.137 205.362 180.145L205.328 180.184L205.296 180.225C204.201 181.598 202.428 182.596 200.22 183.278C196.958 184.266 193.432 184.563 189.696 184.621C177.497 184.638 165.297 184.633 153.094 184.628C152.347 184.628 151.601 184.628 150.854 184.628C151.061 183.235 151.268 181.845 151.477 180.454C159.362 177.977 167.044 174.64 174.146 170.229C185.637 163.153 195.434 153.328 202.428 141.769C209.91 129.455 213.714 115.229 214.465 101.066C215.056 90.7385 214.281 80.2143 211.593 70.0799C209.489 62.0957 206.181 54.4168 201.75 47.426C197.341 40.4304 191.861 34.1792 185.732 28.7446C178.505 22.2833 170.274 16.953 161.423 13.0021C151.49 8.56312 140.873 5.86452 130.167 4.60624L130.159 4.60527C118.436 3.25771 106.527 3.34092 94.8135 4.94607Z" fill="#B6DCFE" stroke="#4788C7" stroke-width="6.67462"></path>
</svg>
